<?xml version="1.0" standalone="no"?><!DOCTYPE svg PUBLIC "-//W3C//DTD SVG 1.1//EN" "http://www.w3.org/Graphics/SVG/1.1/DTD/svg11.dtd"><svg xmlns="http://www.w3.org/2000/svg" version="1.1" width="1901" height="987.167" xmlns:xlink="http://www.w3.org/1999/xlink" xlink="http://www.w3.org/1999/xlink" style="position:relative;overflow:hidden;" viewBox="179.167 -11.948 1901 987.167"><defs/><g><g width="258.333" height="75" transform="scale(1,1) translate(191.667,443.167)"><g stroke="#B3D7EE" stroke-opacity="1" stroke-width="1" stroke-dasharray="none" width="258.333" height="75" transform="scale(1,1) translate(0,0)" fill="#B3D7EE" fill-opacity="1"><rect width="258.333" height="75"/></g><g width="251.66666603088376" height="68.33333333333333" transform="scale(1,1) translate(3.333,3.333)"><text width="251.66666603088376" height="15.624999046325684" transform="scale(1,1) translate(0,26.354167143503823)" xml:space="preserve"><tspan xml:space="preserve" text-rendering="optimizeSpeed" font-size="13.88888888888889" font-weight="normal" font-style="normal" text-decoration="none" fill="#333333" opacity="1" x="16.933" text-anchor="start" y="12.5" textLength="217.80001831054688" style="font-family: Arial, Helvetica Neue, Helvetica, sans-serif;">RPC Alpha &gt; &#36;2.5 AND NET &gt;+&#36;30</tspan></text></g></g><g width="100.5" height="507.229" transform="scale(1,1) translate(450,227.052)"><g fill="#545454" stroke="#545454" stroke-opacity="1" transform="scale(1,1) translate(0,0)"><path fill="none" stroke-width="1" stroke-dasharray="none" d="M0,253.615 L0,253.615 M0,253.615 L0,253.615 M0,253.615 L0,253.615 M0,253.615 L100.5,0 M0,253.615 L100.5,507.229"/><g><g stroke-dasharray="none"><path d="M-3,250.615L3,250.615L3,256.615L-3,256.615z" stroke-width="0" fill="none"/></g></g></g><g stroke-width="0" stroke-dasharray="none" fill="#FFFFFF" opacity="1" width="24.652" height="17.625" transform="scale(1,1) translate(37.924,117.995)"><rect width="24.652" height="17.625"/></g><g width="22.651893615722656" height="253.61458333333331" transform="scale(1,1) translate(38.924,118.995)"><text width="22.651893615722656" height="15.624999046325684" transform="scale(1,1) translate(0,0)" xml:space="preserve"><tspan xml:space="preserve" text-rendering="optimizeSpeed" font-size="13.88888888888889" font-weight="normal" font-style="normal" text-decoration="none" fill="#333333" opacity="1" x="0" text-anchor="start" y="12.5" textLength="22.651893615722656" style="font-family: Arial, Helvetica Neue, Helvetica, sans-serif;">Yes</tspan></text></g><g stroke-width="0" stroke-dasharray="none" fill="#FFFFFF" opacity="1" width="19.75" height="17.625" transform="scale(1,1) translate(40.375,371.609)"><rect width="19.75" height="17.625"/></g><g width="17.74999237060547" height="253.61458333333331" transform="scale(1,1) translate(41.375,372.609)"><text width="17.74999237060547" height="15.624999046325684" transform="scale(1,1) translate(0,0)" xml:space="preserve"><tspan xml:space="preserve" text-rendering="optimizeSpeed" font-size="13.88888888888889" font-weight="normal" font-style="normal" text-decoration="none" fill="#333333" opacity="1" x="0" text-anchor="start" y="12.5" textLength="17.74999237060547" style="font-family: Arial, Helvetica Neue, Helvetica, sans-serif;">No</tspan></text></g></g><g width="100.5" height="252" transform="scale(1,1) translate(842.167,101.052)"><g fill="#545454" stroke="#545454" stroke-opacity="1" transform="scale(1,1) translate(0,0)"><path fill="none" stroke-width="1" stroke-dasharray="none" d="M0,126 L0,126 M0,126 L0,126 M0,126 L0,126 M0,126 L100.5,0 M0,126 L100.5,252"/><g><g stroke-dasharray="none"><path d="M-5,121L5,121L5,131L-5,131z" stroke-width="0" fill="none"/></g></g></g><g stroke-width="0" stroke-dasharray="none" fill="#FFFFFF" opacity="1" width="24.652" height="17.625" transform="scale(1,1) translate(37.924,54.188)"><rect width="24.652" height="17.625"/></g><g width="22.651893615722656" height="126" transform="scale(1,1) translate(38.924,55.188)"><text width="22.651893615722656" height="15.624999046325684" transform="scale(1,1) translate(0,0)" xml:space="preserve"><tspan xml:space="preserve" text-rendering="optimizeSpeed" font-size="13.88888888888889" font-weight="normal" font-style="normal" text-decoration="none" fill="#333333" opacity="1" x="0" text-anchor="start" y="12.5" textLength="22.651893615722656" style="font-family: Arial, Helvetica Neue, Helvetica, sans-serif;">Yes</tspan></text></g><g stroke-width="0" stroke-dasharray="none" fill="#FFFFFF" opacity="1" width="19.75" height="17.625" transform="scale(1,1) translate(40.375,180.188)"><rect width="19.75" height="17.625"/></g><g width="17.74999237060547" height="126" transform="scale(1,1) translate(41.375,181.188)"><text width="17.74999237060547" height="15.624999046325684" transform="scale(1,1) translate(0,0)" xml:space="preserve"><tspan xml:space="preserve" text-rendering="optimizeSpeed" font-size="13.88888888888889" font-weight="normal" font-style="normal" text-decoration="none" fill="#333333" opacity="1" x="0" text-anchor="start" y="12.5" textLength="17.74999237060547" style="font-family: Arial, Helvetica Neue, Helvetica, sans-serif;">No</tspan></text></g></g><g width="291.667" height="75" transform="scale(1,1) translate(550.5,189.552)"><g stroke="#B3D7EE" stroke-opacity="1" stroke-width="1" stroke-dasharray="none" width="291.667" height="75" transform="scale(1,1) translate(0,0)" fill="#B3D7EE" fill-opacity="1"><rect width="291.667" height="75"/></g><g width="285.0000017484031" height="68.33333333333333" transform="scale(1,1) translate(3.333,3.333)"><text width="285.0000017484031" height="31.249998092651367" transform="scale(1,1) translate(0,18.54166762034098)" xml:space="preserve"><tspan xml:space="preserve" text-rendering="optimizeSpeed" font-size="13.88888888888889" font-weight="normal" font-style="normal" text-decoration="none" fill="#333333" opacity="1" x="17.04" text-anchor="start" y="12.5" textLength="247.06239318847656" style="font-family: Arial, Helvetica Neue, Helvetica, sans-serif;">Social Clicks &gt; Social Clicks cut off AND</tspan><tspan xml:space="preserve" text-rendering="optimizeSpeed" font-size="13.88888888888889" font-weight="normal" font-style="normal" text-decoration="none" fill="#333333" opacity="1" x="5.077" text-anchor="start" y="28.125" textLength="274.8464050292969" style="font-family: Arial, Helvetica Neue, Helvetica, sans-serif;">Non-Social Clicks &gt; Non-Social Clicks cut off</tspan></text></g></g><g width="100.5" height="255.875" transform="scale(1,1) translate(842.167,606.344)"><g fill="#545454" stroke="#545454" stroke-opacity="1" transform="scale(1,1) translate(0,0)"><path fill="none" stroke-width="1" stroke-dasharray="none" d="M0,127.937 L0,127.937 M0,127.937 L0,127.937 M0,127.937 L0,127.937 M0,127.937 L100.5,0 M0,127.937 L100.5,255.875"/><g><g stroke-dasharray="none"><path d="M-5,122.937L5,122.937L5,132.937L-5,132.937z" stroke-width="0" fill="none"/></g></g></g><g stroke-width="0" stroke-dasharray="none" fill="#FFFFFF" opacity="1" width="24.652" height="17.625" transform="scale(1,1) translate(37.924,55.156)"><rect width="24.652" height="17.625"/></g><g width="22.651893615722656" height="127.93749999999997" transform="scale(1,1) translate(38.924,56.156)"><text width="22.651893615722656" height="15.624999046325684" transform="scale(1,1) translate(0,0)" xml:space="preserve"><tspan xml:space="preserve" text-rendering="optimizeSpeed" font-size="13.88888888888889" font-weight="normal" font-style="normal" text-decoration="none" fill="#333333" opacity="1" x="0" text-anchor="start" y="12.5" textLength="22.651893615722656" style="font-family: Arial, Helvetica Neue, Helvetica, sans-serif;">Yes</tspan></text></g><g stroke-width="0" stroke-dasharray="none" fill="#FFFFFF" opacity="1" width="19.75" height="17.625" transform="scale(1,1) translate(40.375,183.094)"><rect width="19.75" height="17.625"/></g><g width="17.74999237060547" height="127.93749999999997" transform="scale(1,1) translate(41.375,184.094)"><text width="17.74999237060547" height="15.624999046325684" transform="scale(1,1) translate(0,0)" xml:space="preserve"><tspan xml:space="preserve" text-rendering="optimizeSpeed" font-size="13.88888888888889" font-weight="normal" font-style="normal" text-decoration="none" fill="#333333" opacity="1" x="0" text-anchor="start" y="12.5" textLength="17.74999237060547" style="font-family: Arial, Helvetica Neue, Helvetica, sans-serif;">No</tspan></text></g></g><g width="291.667" height="75" transform="scale(1,1) translate(550.5,696.781)"><g stroke="#B3D7EE" stroke-opacity="1" stroke-width="1" stroke-dasharray="none" width="291.667" height="75" transform="scale(1,1) translate(0,0)" fill="#B3D7EE" fill-opacity="1"><rect width="291.667" height="75"/></g><g width="285.0000019073487" height="68.33333333333333" transform="scale(1,1) translate(3.333,3.333)"><text width="285.0000019073487" height="31.249998092651367" transform="scale(1,1) translate(0,18.54166762034098)" xml:space="preserve"><tspan xml:space="preserve" text-rendering="optimizeSpeed" font-size="13.88888888888889" font-weight="normal" font-style="normal" text-decoration="none" fill="#333333" opacity="1" x="17.04" text-anchor="start" y="12.5" textLength="247.06239318847656" style="font-family: Arial, Helvetica Neue, Helvetica, sans-serif;">Social Clicks &gt; Social Clicks cut off AND</tspan><tspan xml:space="preserve" text-rendering="optimizeSpeed" font-size="13.88888888888889" font-weight="normal" font-style="normal" text-decoration="none" fill="#333333" opacity="1" x="5.077" text-anchor="start" y="28.125" textLength="274.8464050292969" style="font-family: Arial, Helvetica Neue, Helvetica, sans-serif;">Non-Social Clicks &gt; Non-Social Clicks cut off</tspan></text></g></g><g width="100" height="0" transform="scale(1,1) translate(1967.167,542.052)"><g fill="#545454" stroke="#545454" stroke-opacity="1" transform="scale(1,1) translate(0,0)"><path fill="none" stroke-width="1" stroke-dasharray="none" d="M0,0"/></g></g><g width="100.5" height="128.583" transform="scale(1,1) translate(1442.167,542.052)"><g fill="#545454" stroke="#545454" stroke-opacity="1" transform="scale(1,1) translate(0,0)"><path fill="none" stroke-width="1" stroke-dasharray="none" d="M0,64.292 L0,64.292 M0,64.292 L0,64.292 M0,64.292 L0,64.292 M0,64.292 L100.5,0 M0,64.292 L100.5,128.583"/><g><g stroke-dasharray="none"><path d="M-5,59.292L5,59.292L5,69.292L-5,69.292z" stroke-width="0" fill="none"/></g></g></g><g stroke-width="0" stroke-dasharray="none" fill="#FFFFFF" opacity="1" width="24.652" height="17.625" transform="scale(1,1) translate(37.924,23.333)"><rect width="24.652" height="17.625"/></g><g width="22.651893615722656" height="64.29166666666669" transform="scale(1,1) translate(38.924,24.333)"><text width="22.651893615722656" height="15.624999046325684" transform="scale(1,1) translate(0,0)" xml:space="preserve"><tspan xml:space="preserve" text-rendering="optimizeSpeed" font-size="13.88888888888889" font-weight="normal" font-style="normal" text-decoration="none" fill="#333333" opacity="1" x="0" text-anchor="start" y="12.5" textLength="22.651893615722656" style="font-family: Arial, Helvetica Neue, Helvetica, sans-serif;">Yes</tspan></text></g><g stroke-width="0" stroke-dasharray="none" fill="#FFFFFF" opacity="1" width="19.75" height="17.625" transform="scale(1,1) translate(40.375,87.625)"><rect width="19.75" height="17.625"/></g><g width="17.74999237060547" height="64.29166666666669" transform="scale(1,1) translate(41.375,88.625)"><text width="17.74999237060547" height="15.624999046325684" transform="scale(1,1) translate(0,0)" xml:space="preserve"><tspan xml:space="preserve" text-rendering="optimizeSpeed" font-size="13.88888888888889" font-weight="normal" font-style="normal" text-decoration="none" fill="#333333" opacity="1" x="0" text-anchor="start" y="12.5" textLength="17.74999237060547" style="font-family: Arial, Helvetica Neue, Helvetica, sans-serif;">No</tspan></text></g></g><g width="499.5" height="75" transform="scale(1,1) translate(942.667,568.844)"><g stroke="#B3D7EE" stroke-opacity="1" stroke-width="1" stroke-dasharray="none" width="499.5" height="75" transform="scale(1,1) translate(0,0)" fill="#B3D7EE" fill-opacity="1"><rect width="499.5" height="75"/></g><g width="492.8333333333333" height="68.33333333333333" transform="scale(1,1) translate(3.333,3.333)"><text width="492.8333333333333" height="15.624999046325684" transform="scale(1,1) translate(0,26.354167143503823)" xml:space="preserve"><tspan xml:space="preserve" text-rendering="optimizeSpeed" font-size="13.88888888888889" font-weight="normal" font-style="normal" text-decoration="none" fill="#333333" opacity="1" x="32.59" text-anchor="start" y="12.5" textLength="427.6536865234375" style="font-family: Arial, Helvetica Neue, Helvetica, sans-serif;"> Current Bid Cap  &lt; Min(EBRPC*Factor, Avg.(RPC Alpha, RPC Beta))</tspan></text></g></g><g width="100" height="0" transform="scale(1,1) translate(1967.667,799.219)"><g fill="#545454" stroke="#545454" stroke-opacity="1" transform="scale(1,1) translate(0,0)"><path fill="none" stroke-width="1" stroke-dasharray="none" d="M0,0"/></g></g><g width="100.5" height="126" transform="scale(1,1) translate(1433.833,799.219)"><g fill="#545454" stroke="#545454" stroke-opacity="1" transform="scale(1,1) translate(0,0)"><path fill="none" stroke-width="1" stroke-dasharray="none" d="M0,63 L0,63 M0,63 L0,63 M0,63 L0,63 M0,63 L100.5,0 M0,63 L100.5,126"/><g><g stroke-dasharray="none"><path d="M-5,58L5,58L5,68L-5,68z" stroke-width="0" fill="none"/></g></g></g><g stroke-width="0" stroke-dasharray="none" fill="#FFFFFF" opacity="1" width="24.652" height="17.625" transform="scale(1,1) translate(37.924,22.688)"><rect width="24.652" height="17.625"/></g><g width="22.651893615722656" height="63" transform="scale(1,1) translate(38.924,23.688)"><text width="22.651893615722656" height="15.624999046325684" transform="scale(1,1) translate(0,0)" xml:space="preserve"><tspan xml:space="preserve" text-rendering="optimizeSpeed" font-size="13.88888888888889" font-weight="normal" font-style="normal" text-decoration="none" fill="#333333" opacity="1" x="0" text-anchor="start" y="12.5" textLength="22.651893615722656" style="font-family: Arial, Helvetica Neue, Helvetica, sans-serif;">Yes</tspan></text></g><g stroke-width="0" stroke-dasharray="none" fill="#FFFFFF" opacity="1" width="19.75" height="17.625" transform="scale(1,1) translate(40.375,85.688)"><rect width="19.75" height="17.625"/></g><g width="17.74999237060547" height="63" transform="scale(1,1) translate(41.375,86.688)"><text width="17.74999237060547" height="15.624999046325684" transform="scale(1,1) translate(0,0)" xml:space="preserve"><tspan xml:space="preserve" text-rendering="optimizeSpeed" font-size="13.88888888888889" font-weight="normal" font-style="normal" text-decoration="none" fill="#333333" opacity="1" x="0" text-anchor="start" y="12.5" textLength="17.74999237060547" style="font-family: Arial, Helvetica Neue, Helvetica, sans-serif;">No</tspan></text></g></g><g width="424.5" height="75" transform="scale(1,1) translate(1542.667,504.552)"><g stroke="#B3D7EE" stroke-opacity="1" stroke-width="1" stroke-dasharray="none" width="424.5" height="75" transform="scale(1,1) translate(0,0)" fill="#B3D7EE" fill-opacity="1"><rect width="424.5" height="75"/></g><g width="417.8333333333333" height="68.33333333333333" transform="scale(1,1) translate(3.333,3.333)"><text width="417.8333333333333" height="15.624999046325684" transform="scale(1,1) translate(0,26.354167143503823)" xml:space="preserve"><tspan xml:space="preserve" text-rendering="optimizeSpeed" font-size="13.88888888888889" font-weight="normal" font-style="normal" text-decoration="none" fill="#333333" opacity="1" x="132.506" text-anchor="start" y="12.5" textLength="152.82069396972656" style="font-family: Arial, Helvetica Neue, Helvetica, sans-serif;"> Increase Bid Cap by 5%</tspan></text></g></g><g width="100" height="0" transform="scale(1,1) translate(1967.167,670.635)"><g fill="#545454" stroke="#545454" stroke-opacity="1" transform="scale(1,1) translate(0,0)"><path fill="none" stroke-width="1" stroke-dasharray="none" d="M0,0"/></g></g><g width="424.5" height="80.167" transform="scale(1,1) translate(1542.667,630.552)"><g stroke="#B3D7EE" stroke-opacity="1" stroke-width="1" stroke-dasharray="none" width="424.5" height="80.167" transform="scale(1,1) translate(0,0)" fill="#B3D7EE" fill-opacity="1"><rect width="424.5" height="80.167"/></g><g width="417.8333333333333" height="73.5" transform="scale(1,1) translate(3.333,3.333)"><text width="417.8333333333333" height="15.624999046325684" transform="scale(1,1) translate(0,28.937500476837158)" xml:space="preserve"><tspan xml:space="preserve" text-rendering="optimizeSpeed" font-size="13.88888888888889" font-weight="normal" font-style="normal" text-decoration="none" fill="#333333" opacity="1" x="131.35" text-anchor="start" y="12.5" textLength="155.1326904296875" style="font-family: Arial, Helvetica Neue, Helvetica, sans-serif;">Decrease Bid Cap by 5%</tspan></text></g></g><g width="433.333" height="75" transform="scale(1,1) translate(1534.333,761.719)"><g stroke="#B3D7EE" stroke-opacity="1" stroke-width="1" stroke-dasharray="none" width="433.333" height="75" transform="scale(1,1) translate(0,0)" fill="#B3D7EE" fill-opacity="1"><rect width="433.333" height="75"/></g><g width="426.66666666666663" height="68.33333333333333" transform="scale(1,1) translate(3.333,3.333)"><text width="426.66666666666663" height="15.624999046325684" transform="scale(1,1) translate(0,26.354167143503823)" xml:space="preserve"><tspan xml:space="preserve" text-rendering="optimizeSpeed" font-size="13.88888888888889" font-weight="normal" font-style="normal" text-decoration="none" fill="#333333" opacity="1" x="138.852" text-anchor="start" y="12.5" textLength="148.962890625" style="font-family: Arial, Helvetica Neue, Helvetica, sans-serif;">Increase Bid Cap by 2%</tspan></text></g></g><g width="100" height="0" transform="scale(1,1) translate(1967.167,925.219)"><g fill="#545454" stroke="#545454" stroke-opacity="1" transform="scale(1,1) translate(0,0)"><path fill="none" stroke-width="1" stroke-dasharray="none" d="M0,0"/></g></g><g width="432.833" height="75" transform="scale(1,1) translate(1534.333,887.719)"><g stroke="#B3D7EE" stroke-opacity="1" stroke-width="1" stroke-dasharray="none" width="432.833" height="75" transform="scale(1,1) translate(0,0)" fill="#B3D7EE" fill-opacity="1"><rect width="432.833" height="75"/></g><g width="426.16666666666663" height="68.33333333333333" transform="scale(1,1) translate(3.333,3.333)"><text width="426.16666666666663" height="15.624999046325684" transform="scale(1,1) translate(0,26.354167143503823)" xml:space="preserve"><tspan xml:space="preserve" text-rendering="optimizeSpeed" font-size="13.88888888888889" font-weight="normal" font-style="normal" text-decoration="none" fill="#333333" opacity="1" x="48.259" text-anchor="start" y="12.5" textLength="325.7914123535156" style="font-family: Arial, Helvetica Neue, Helvetica, sans-serif;">Bid Cap = Min(EBRPC, Avg.(RPC Alpha, RPC Beta))</tspan></text></g></g><g width="100" height="0" transform="scale(1,1) translate(1958.833,38.052)"><g fill="#545454" stroke="#545454" stroke-opacity="1" transform="scale(1,1) translate(0,0)"><path fill="none" stroke-width="1" stroke-dasharray="none" d="M0,0"/></g></g><g width="100.5" height="126" transform="scale(1,1) translate(1433.833,38.052)"><g fill="#545454" stroke="#545454" stroke-opacity="1" transform="scale(1,1) translate(0,0)"><path fill="none" stroke-width="1" stroke-dasharray="none" d="M0,63 L0,63 M0,63 L0,63 M0,63 L0,63 M0,63 L100.5,0 M0,63 L100.5,126"/><g><g stroke-dasharray="none"><path d="M-5,58L5,58L5,68L-5,68z" stroke-width="0" fill="none"/></g></g></g><g stroke-width="0" stroke-dasharray="none" fill="#FFFFFF" opacity="1" width="24.652" height="17.625" transform="scale(1,1) translate(37.924,22.688)"><rect width="24.652" height="17.625"/></g><g width="22.651893615722656" height="63" transform="scale(1,1) translate(38.924,23.688)"><text width="22.651893615722656" height="15.624999046325684" transform="scale(1,1) translate(0,0)" xml:space="preserve"><tspan xml:space="preserve" text-rendering="optimizeSpeed" font-size="13.88888888888889" font-weight="normal" font-style="normal" text-decoration="none" fill="#333333" opacity="1" x="0" text-anchor="start" y="12.5" textLength="22.651893615722656" style="font-family: Arial, Helvetica Neue, Helvetica, sans-serif;">Yes</tspan></text></g><g stroke-width="0" stroke-dasharray="none" fill="#FFFFFF" opacity="1" width="19.75" height="17.625" transform="scale(1,1) translate(40.375,85.688)"><rect width="19.75" height="17.625"/></g><g width="17.74999237060547" height="63" transform="scale(1,1) translate(41.375,86.688)"><text width="17.74999237060547" height="15.624999046325684" transform="scale(1,1) translate(0,0)" xml:space="preserve"><tspan xml:space="preserve" text-rendering="optimizeSpeed" font-size="13.88888888888889" font-weight="normal" font-style="normal" text-decoration="none" fill="#333333" opacity="1" x="0" text-anchor="start" y="12.5" textLength="17.74999237060547" style="font-family: Arial, Helvetica Neue, Helvetica, sans-serif;">No</tspan></text></g></g><g width="491.167" height="75" transform="scale(1,1) translate(942.667,63.552)"><g stroke="#B3D7EE" stroke-opacity="1" stroke-width="1" stroke-dasharray="none" width="491.167" height="75" transform="scale(1,1) translate(0,0)" fill="#B3D7EE" fill-opacity="1"><rect width="491.167" height="75"/></g><g width="484.5" height="68.33333333333333" transform="scale(1,1) translate(3.333,3.333)"><text width="484.5" height="15.624999046325684" transform="scale(1,1) translate(0,26.354167143503823)" xml:space="preserve"><tspan xml:space="preserve" text-rendering="optimizeSpeed" font-size="13.88888888888889" font-weight="normal" font-style="normal" text-decoration="none" fill="#333333" opacity="1" x="28.423" text-anchor="start" y="12.5" textLength="427.6536560058594" style="font-family: Arial, Helvetica Neue, Helvetica, sans-serif;">Current Bid Cap  &lt; Max(EBRPC*Factor, Avg.(RPC Alpha, RPC Beta))</tspan></text></g></g><g width="100" height="0" transform="scale(1,1) translate(1958.833,290.052)"><g fill="#545454" stroke="#545454" stroke-opacity="1" transform="scale(1,1) translate(0,0)"><path fill="none" stroke-width="1" stroke-dasharray="none" d="M0,0"/></g></g><g width="100.5" height="126" transform="scale(1,1) translate(1433.833,290.052)"><g fill="#545454" stroke="#545454" stroke-opacity="1" transform="scale(1,1) translate(0,0)"><path fill="none" stroke-width="1" stroke-dasharray="none" d="M0,63 L0,63 M0,63 L0,63 M0,63 L0,63 M0,63 L100.5,0 M0,63 L100.5,126"/><g><g stroke-dasharray="none"><path d="M-5,58L5,58L5,68L-5,68z" stroke-width="0" fill="none"/></g></g></g><g stroke-width="0" stroke-dasharray="none" fill="#FFFFFF" opacity="1" width="24.652" height="17.625" transform="scale(1,1) translate(37.924,22.688)"><rect width="24.652" height="17.625"/></g><g width="22.651893615722656" height="63" transform="scale(1,1) translate(38.924,23.688)"><text width="22.651893615722656" height="15.624999046325684" transform="scale(1,1) translate(0,0)" xml:space="preserve"><tspan xml:space="preserve" text-rendering="optimizeSpeed" font-size="13.88888888888889" font-weight="normal" font-style="normal" text-decoration="none" fill="#333333" opacity="1" x="0" text-anchor="start" y="12.5" textLength="22.651893615722656" style="font-family: Arial, Helvetica Neue, Helvetica, sans-serif;">Yes</tspan></text></g><g stroke-width="0" stroke-dasharray="none" fill="#FFFFFF" opacity="1" width="19.75" height="17.625" transform="scale(1,1) translate(40.375,85.688)"><rect width="19.75" height="17.625"/></g><g width="17.74999237060547" height="63" transform="scale(1,1) translate(41.375,86.688)"><text width="17.74999237060547" height="15.624999046325684" transform="scale(1,1) translate(0,0)" xml:space="preserve"><tspan xml:space="preserve" text-rendering="optimizeSpeed" font-size="13.88888888888889" font-weight="normal" font-style="normal" text-decoration="none" fill="#333333" opacity="1" x="0" text-anchor="start" y="12.5" textLength="17.74999237060547" style="font-family: Arial, Helvetica Neue, Helvetica, sans-serif;">No</tspan></text></g></g><g width="491.167" height="75" transform="scale(1,1) translate(942.667,315.552)"><g stroke="#B3D7EE" stroke-opacity="1" stroke-width="1" stroke-dasharray="none" width="491.167" height="75" transform="scale(1,1) translate(0,0)" fill="#B3D7EE" fill-opacity="1"><rect width="491.167" height="75"/></g><g width="484.5" height="68.33333333333333" transform="scale(1,1) translate(3.333,3.333)"><text width="484.5" height="15.624999046325684" transform="scale(1,1) translate(0,26.354167143503823)" xml:space="preserve"><tspan xml:space="preserve" text-rendering="optimizeSpeed" font-size="13.88888888888889" font-weight="normal" font-style="normal" text-decoration="none" fill="#333333" opacity="1" x="52.346" text-anchor="start" y="12.5" textLength="379.8075256347656" style="font-family: Arial, Helvetica Neue, Helvetica, sans-serif;">Current Bid Cap &lt; Max(EBRPC, Avg.(RPC Alpha, RPC Beta))</tspan></text></g></g><g width="424.5" height="75" transform="scale(1,1) translate(1534.333,0.552)"><g stroke="#B3D7EE" stroke-opacity="1" stroke-width="1" stroke-dasharray="none" width="424.5" height="75" transform="scale(1,1) translate(0,0)" fill="#B3D7EE" fill-opacity="1"><rect width="424.5" height="75"/></g><g width="417.8333333333333" height="68.33333333333333" transform="scale(1,1) translate(3.333,3.333)"><text width="417.8333333333333" height="15.624999046325684" transform="scale(1,1) translate(0,26.354167143503823)" xml:space="preserve"><tspan xml:space="preserve" text-rendering="optimizeSpeed" font-size="13.88888888888889" font-weight="normal" font-style="normal" text-decoration="none" fill="#333333" opacity="1" x="134.435" text-anchor="start" y="12.5" textLength="148.962890625" style="font-family: Arial, Helvetica Neue, Helvetica, sans-serif;">Increase Bid Cap by 1%</tspan></text></g></g><g width="100" height="0" transform="scale(1,1) translate(1958.833,164.052)"><g fill="#545454" stroke="#545454" stroke-opacity="1" transform="scale(1,1) translate(0,0)"><path fill="none" stroke-width="1" stroke-dasharray="none" d="M0,0"/></g></g><g width="424.5" height="75" transform="scale(1,1) translate(1534.333,126.552)"><g stroke="#B3D7EE" stroke-opacity="1" stroke-width="1" stroke-dasharray="none" width="424.5" height="75" transform="scale(1,1) translate(0,0)" fill="#B3D7EE" fill-opacity="1"><rect width="424.5" height="75"/></g><g width="417.8333333333333" height="68.33333333333333" transform="scale(1,1) translate(3.333,3.333)"><text width="417.8333333333333" height="15.624999046325684" transform="scale(1,1) translate(0,26.354167143503823)" xml:space="preserve"><tspan xml:space="preserve" text-rendering="optimizeSpeed" font-size="13.88888888888889" font-weight="normal" font-style="normal" text-decoration="none" fill="#333333" opacity="1" x="131.35" text-anchor="start" y="12.5" textLength="155.1326904296875" style="font-family: Arial, Helvetica Neue, Helvetica, sans-serif;">Decrease Bid Cap by 4%</tspan></text></g></g><g width="424.5" height="75" transform="scale(1,1) translate(1534.333,252.552)"><g stroke="#B3D7EE" stroke-opacity="1" stroke-width="1" stroke-dasharray="none" width="424.5" height="75" transform="scale(1,1) translate(0,0)" fill="#B3D7EE" fill-opacity="1"><rect width="424.5" height="75"/></g><g width="417.8333333333333" height="68.33333333333333" transform="scale(1,1) translate(3.333,3.333)"><text width="417.8333333333333" height="15.624999046325684" transform="scale(1,1) translate(0,26.354167143503823)" xml:space="preserve"><tspan xml:space="preserve" text-rendering="optimizeSpeed" font-size="13.88888888888889" font-weight="normal" font-style="normal" text-decoration="none" fill="#333333" opacity="1" x="134.435" text-anchor="start" y="12.5" textLength="148.962890625" style="font-family: Arial, Helvetica Neue, Helvetica, sans-serif;">Increase Bid Cap by 1%</tspan></text></g></g><g width="100" height="0" transform="scale(1,1) translate(1958.833,416.052)"><g fill="#545454" stroke="#545454" stroke-opacity="1" transform="scale(1,1) translate(0,0)"><path fill="none" stroke-width="1" stroke-dasharray="none" d="M0,0"/></g></g><g width="424.5" height="75" transform="scale(1,1) translate(1534.333,378.552)"><g stroke="#B3D7EE" stroke-opacity="1" stroke-width="1" stroke-dasharray="none" width="424.5" height="75" transform="scale(1,1) translate(0,0)" fill="#B3D7EE" fill-opacity="1"><rect width="424.5" height="75"/></g><g width="417.8333333333333" height="68.33333333333333" transform="scale(1,1) translate(3.333,3.333)"><text width="417.8333333333333" height="15.624999046325684" transform="scale(1,1) translate(0,26.354167143503823)" xml:space="preserve"><tspan xml:space="preserve" text-rendering="optimizeSpeed" font-size="13.88888888888889" font-weight="normal" font-style="normal" text-decoration="none" fill="#333333" opacity="1" x="37.529" text-anchor="start" y="12.5" textLength="342.7752685546875" style="font-family: Arial, Helvetica Neue, Helvetica, sans-serif;">Bid Cap = Max(EBRPC, Avg.(RPC Alpha,S1RPC Beta))</tspan></text></g></g><g width="491.167" height="75" transform="scale(1,1) translate(942.667,824.719)"><g stroke="#B3D7EE" stroke-opacity="1" stroke-width="1" stroke-dasharray="none" width="491.167" height="75" transform="scale(1,1) translate(0,0)" fill="#B3D7EE" fill-opacity="1"><rect width="491.167" height="75"/></g><g width="484.5" height="68.33333333333333" transform="scale(1,1) translate(3.333,3.333)"><text width="484.5" height="15.624999046325684" transform="scale(1,1) translate(0,26.354167143503823)" xml:space="preserve" style="user-select: none; -webkit-user-drag: none; -webkit-tap-highlight-color: rgba(0, 0, 0, 0);"><tspan xml:space="preserve" text-rendering="optimizeSpeed" font-size="13.88888888888889" font-weight="normal" font-style="normal" text-decoration="none" fill="#333333" opacity="1" x="52.346" text-anchor="start" y="12.5" textLength="379.80743408203125" style="font-family: Arial, Helvetica Neue, Helvetica, sans-serif;">Current Bid Cap  &lt; Min(EBRPC, Avg.(RPC Alpha, RPC Beta))</tspan></text></g></g></g></svg>